<svg xmlns="http://www.w3.org/2000/svg" width="1200" height="630" viewBox="0 0 1200 630">
<style>text{font-family:-apple-system,BlinkMacSystemFont,Segoe UI,Roboto,Helvetica,Arial,sans-serif}svg svg text{fill:#e6edf3}.mono{font-family:ui-monospace,SFMono-Regular,Menlo,Consolas,monospace}</style>
<rect width="1200" height="630" fill="#0e1116"/>
<rect x="0" y="0" width="1200" height="8" fill="#4cb8ec"/>
<text x="60" y="66" font-size="30" font-weight="700" fill="#e6edf3">🐦 Milvus 图解教程 · Milvus Visual Guide</text>
<text x="60" y="112" font-size="36" font-weight="700" fill="#4cb8ec">第 9 课 · 控制面 vs 数据面</text>
<text x="60" y="142" font-size="22" fill="#9aa6b2">Control plane vs data plane</text>
<rect x="92" y="154" width="1016" height="417" rx="16" fill="#161b22" stroke="#2a323c"/>
<svg x="112" y="170" width="976" height="385" viewBox="0 0 760 300">
    <rect x="20" y="36" width="720" height="86" rx="12" style="fill:#0e2c3e;opacity:.22"/>
    <text x="36" y="58" style="fill:#8fd3f4;font-weight:700">控制面 control plane · 决定谁做什么（低频）</text>
    <rect x="300" y="64" width="190" height="48" rx="10" style="fill:#161b22;stroke:#4cb8ec;stroke-width:1.5"/><text x="395" y="93" text-anchor="middle" style="fill:#8fd3f4;font-weight:700">MixCoord 协调者</text>
    <rect x="520" y="64" width="150" height="48" rx="10" style="fill:#161b22;stroke:#6ea8fe;stroke-width:1.5"/><text x="595" y="93" text-anchor="middle" style="fill:#6ea8fe;font-weight:700">etcd · 真相</text>
    <line x1="490" y1="88" x2="518" y2="88" style="stroke:#2a323c;stroke-width:1.5;stroke-dasharray:3 3"/>
    <rect x="20" y="182" width="720" height="96" rx="12" style="fill:#0d2e2a;opacity:.20"/>
    <text x="36" y="204" style="fill:#5ed0c4;font-weight:700">数据面 data plane · 真正干活（高频吞吐）</text>
    <rect x="60" y="214" width="160" height="50" rx="10" style="fill:#161b22;stroke:#5ed0c4;stroke-width:1.5"/><text x="140" y="244" text-anchor="middle" style="fill:#e6edf3">Proxy</text>
    <rect x="300" y="214" width="160" height="50" rx="10" style="fill:#161b22;stroke:#5ed0c4;stroke-width:1.5"/><text x="380" y="244" text-anchor="middle" style="fill:#e6edf3">QueryNode</text>
    <rect x="540" y="214" width="160" height="50" rx="10" style="fill:#161b22;stroke:#5ed0c4;stroke-width:1.5"/><text x="620" y="244" text-anchor="middle" style="fill:#e6edf3">DataNode</text>
    <line x1="220" y1="231" x2="296" y2="231" style="stroke:#5ed0c4;stroke-width:4"/><path d="M296,231 l-12,-6 l0,12 z" style="fill:#5ed0c4"/>
    <line x1="220" y1="251" x2="536" y2="251" style="stroke:#5ed0c4;stroke-width:4"/><path d="M536,251 l-12,-6 l0,12 z" style="fill:#5ed0c4"/>
    <text x="474" y="206" style="fill:#5ed0c4">用户数据：search / insert 字节</text>
    <line x1="395" y1="112" x2="395" y2="178" style="stroke:#4cb8ec;stroke-width:2;stroke-dasharray:5 4"/><path d="M395,178 l-5,-11 l10,0 z" style="fill:#4cb8ec"/>
    <text x="406" y="152" style="fill:#8fd3f4;font-weight:700">决策·调度（低频）</text>
    <line x1="150" y1="206" x2="150" y2="156" style="stroke:#f08080;stroke-width:3"/><path d="M150,156 l-6,11 l12,0 z" style="fill:#f08080"/>
    <path d="M132,150 l24,18 M156,150 l-24,18" style="stroke:#f08080;stroke-width:3"/>
    <text x="168" y="150" style="fill:#f08080;font-weight:700">高频吞吐 ✗ 不上控制面</text>
  </svg>
<text x="60" y="598" font-size="22" fill="#9aa6b2">verdenmax.github.io/milvus-visual-guide</text>
<text x="1140" y="598" text-anchor="end" font-size="22" fill="#9aa6b2">57 课 · 中英双语 / bilingual</text>
</svg>