<svg xmlns="http://www.w3.org/2000/svg" width="1200" height="630" viewBox="0 0 1200 630">
<style>text{font-family:-apple-system,BlinkMacSystemFont,Segoe UI,Roboto,Helvetica,Arial,sans-serif}.mono{font-family:ui-monospace,SFMono-Regular,Menlo,Consolas,monospace}</style>
<rect width="1200" height="630" fill="#0e1116"/>
<rect x="0" y="0" width="1200" height="8" fill="#4cb8ec"/>
<text x="60" y="66" font-size="30" font-weight="700" fill="#e6edf3">🐦 Milvus 图解教程 · Milvus Visual Guide</text>
<text x="60" y="112" font-size="36" font-weight="700" fill="#4cb8ec">第 51 课 · 日志即数据</text>
<text x="60" y="142" font-size="22" fill="#9aa6b2">Log as data</text>
<rect x="92" y="154" width="1016" height="417" rx="16" fill="#161b22" stroke="#2a323c"/>
<svg x="112" y="170" width="976" height="385" viewBox="0 0 600 258">
  <text x="40" y="28" font-size="13" style="fill:#9aa6b2">WAL · 只追加的日志</text>
  <text x="516" y="28" text-anchor="end" font-size="12.5" font-weight="700" style="fill:#8fd3f4">Proxy 追加 →</text>
  <rect x="40" y="42" width="76" height="46" rx="7" style="fill:#0e2c3e;stroke:#4cb8ec"/>
  <text x="78" y="71" text-anchor="middle" font-size="13.5" class="mono" style="fill:#8fd3f4">TT100</text>
  <rect x="120" y="42" width="76" height="46" rx="7" style="fill:#0e2c3e;stroke:#4cb8ec"/>
  <text x="158" y="71" text-anchor="middle" font-size="13.5" class="mono" style="fill:#8fd3f4">101</text>
  <rect x="200" y="42" width="76" height="46" rx="7" style="fill:#0e2c3e;stroke:#4cb8ec"/>
  <text x="238" y="71" text-anchor="middle" font-size="13.5" class="mono" style="fill:#8fd3f4">102</text>
  <rect x="280" y="42" width="76" height="46" rx="7" style="fill:#0e2c3e;stroke:#4cb8ec"/>
  <text x="318" y="71" text-anchor="middle" font-size="13.5" class="mono" style="fill:#8fd3f4">103</text>
  <rect x="360" y="42" width="76" height="46" rx="7" style="fill:#0e2c3e;stroke:#4cb8ec"/>
  <text x="398" y="71" text-anchor="middle" font-size="13.5" class="mono" style="fill:#8fd3f4">104</text>
  <rect x="440" y="42" width="76" height="46" rx="7" style="fill:#4cb8ec;stroke:#4cb8ec"/>
  <text x="478" y="71" text-anchor="middle" font-size="13.5" class="mono" style="fill:#fff">105</text>
  <path d="M478,88 L478,140" style="fill:none;stroke:#5ed0c4;stroke-dasharray:3 3"/>
  <path d="M398,88 L398,184" style="fill:none;stroke:#4cb8ec;stroke-dasharray:3 3"/>
  <path d="M238,88 L238,228" style="fill:none;stroke:#e0a44a;stroke-dasharray:3 3"/>
  <line x1="40" y1="140" x2="560" y2="140" style="stroke:#2a323c"/>
  <circle cx="478" cy="140" r="6" style="fill:#5ed0c4"/>
  <text x="466" y="145" text-anchor="end" font-size="13"><tspan font-weight="700" style="fill:#5ed0c4">DataNode</tspan> · 落盘到 105</text>
  <line x1="40" y1="184" x2="560" y2="184" style="stroke:#2a323c"/>
  <circle cx="398" cy="184" r="6" style="fill:#4cb8ec"/>
  <text x="386" y="189" text-anchor="end" font-size="13"><tspan font-weight="700" style="fill:#8fd3f4">QueryNode</tspan> · 读到 104（tsafe）</text>
  <line x1="40" y1="228" x2="560" y2="228" style="stroke:#2a323c"/>
  <circle cx="238" cy="228" r="6" style="fill:#e0a44a"/>
  <text x="226" y="233" text-anchor="end" font-size="13"><tspan font-weight="700" style="fill:#e0a44a">备集群</tspan> · 重放到 102</text>
</svg>
<text x="60" y="598" font-size="22" fill="#9aa6b2">verdenmax.github.io/milvus-visual-guide</text>
<text x="1140" y="598" text-anchor="end" font-size="22" fill="#9aa6b2">57 课 · 中英双语 / bilingual</text>
</svg>