<svg xmlns="http://www.w3.org/2000/svg" width="1200" height="630" viewBox="0 0 1200 630">
<style>text{font-family:-apple-system,BlinkMacSystemFont,Segoe UI,Roboto,Helvetica,Arial,sans-serif}svg svg text{fill:#e6edf3}.mono{font-family:ui-monospace,SFMono-Regular,Menlo,Consolas,monospace}</style>
<rect width="1200" height="630" fill="#0e1116"/>
<rect x="0" y="0" width="1200" height="8" fill="#4cb8ec"/>
<text x="60" y="66" font-size="30" font-weight="700" fill="#e6edf3">🐦 Milvus 图解教程 · Milvus Visual Guide</text>
<text x="60" y="112" font-size="36" font-weight="700" fill="#4cb8ec">第 53 课 · 存算分离</text>
<text x="60" y="142" font-size="22" fill="#9aa6b2">Storage-compute separation</text>
<rect x="92" y="154" width="1016" height="417" rx="16" fill="#161b22" stroke="#2a323c"/>
<svg x="112" y="170" width="976" height="385" viewBox="0 0 600 268">
  <rect x="40" y="20" width="520" height="38" rx="9" style="fill:#1c232c;stroke:#2a323c"/>
  <text x="300" y="44" text-anchor="middle" font-size="13" font-weight="700">控制面 · etcd（元数据 / 段分配 / 谁活着）</text>
  <rect x="56" y="100" width="150" height="52" rx="9" style="fill:#161b22;stroke:#4cb8ec"/>
  <text x="131" y="122" text-anchor="middle" font-size="12.5" font-weight="700" style="fill:#8fd3f4">QueryNode A</text>
  <text x="131" y="140" text-anchor="middle" font-size="11" style="fill:#9aa6b2">持有 seg5,6</text>
  <rect x="225" y="100" width="150" height="52" rx="9" style="fill:#3a1a1a;stroke:#f08080;stroke-dasharray:4 3"/>
  <text x="300" y="122" text-anchor="middle" font-size="12.5" font-weight="700" style="fill:#f08080">QueryNode B ✗ 宕机</text>
  <text x="300" y="140" text-anchor="middle" font-size="11" style="fill:#9aa6b2">曾持有 seg7</text>
  <rect x="394" y="100" width="150" height="52" rx="9" style="fill:#0d2e2a;stroke:#5ed0c4"/>
  <text x="469" y="122" text-anchor="middle" font-size="12.5" font-weight="700" style="fill:#5ed0c4">QueryNode C（新）</text>
  <text x="469" y="140" text-anchor="middle" font-size="11" style="fill:#9aa6b2">加载 seg7</text>
  <rect x="40" y="208" width="520" height="46" rx="9" style="fill:#0e2c3e;stroke:#4cb8ec"/>
  <text x="300" y="236" text-anchor="middle" font-size="12.5" font-weight="700" style="fill:#8fd3f4">对象存储 · binlog + 索引（seg5　seg6　seg7　…）</text>
  <path d="M469,58 L469,93" style="fill:none;stroke:#4cb8ec;stroke-dasharray:4 3"/>
  <path d="M465,90 L473,90 L469,98 Z" style="fill:#4cb8ec"/>
  <text x="478" y="80" font-size="10.5" style="fill:#8fd3f4">把 seg7 派给 C</text>
  <path d="M469,208 L469,159" style="fill:none;stroke:#5ed0c4"/>
  <path d="M465,162 L473,162 L469,154 Z" style="fill:#5ed0c4"/>
  <text x="478" y="188" font-size="10.5" style="fill:#5ed0c4">C 从存储重载</text>
  <path d="M375,126 L392,126" style="fill:none;stroke:#6e7a86;stroke-dasharray:2 2"/>
</svg>
<text x="60" y="598" font-size="22" fill="#9aa6b2">verdenmax.github.io/milvus-visual-guide</text>
<text x="1140" y="598" text-anchor="end" font-size="22" fill="#9aa6b2">57 课 · 中英双语 / bilingual</text>
</svg>